<?xml version="1.0" encoding="utf-8"?>
<!-- Generator: Adobe Illustrator 23.0.1, SVG Export Plug-In . SVG Version: 6.00 Build 0)  -->
<svg version="1.1"
	 id="svg8" xmlns:cc="http://creativecommons.org/ns#" xmlns:dc="http://purl.org/dc/elements/1.1/" xmlns:inkscape="http://www.inkscape.org/namespaces/inkscape" xmlns:rdf="http://www.w3.org/1999/02/22-rdf-syntax-ns#" xmlns:sodipodi="http://sodipodi.sourceforge.net/DTD/sodipodi-0.dtd" xmlns:svg="http://www.w3.org/2000/svg"
	 xmlns="http://www.w3.org/2000/svg" xmlns:xlink="http://www.w3.org/1999/xlink" x="0px" y="0px" viewBox="0 0 431.6796 110.1861"
	 style="enable-background:new 0 0 431.6796 110.1861;" xml:space="preserve">
<style type="text/css">
	.st0{fill:#FFFFFF;}
	.st1{fill:#C70A0C;}
</style>
<sodipodi:namedview  bordercolor="#666666" borderopacity="1.0" fit-margin-bottom="0.5" fit-margin-left="0.5" fit-margin-right="0.5" fit-margin-top="0.5" id="base" inkscape:current-layer="layer1" inkscape:cx="576.29463" inkscape:cy="6.9769455" inkscape:document-units="px" inkscape:pageopacity="0" inkscape:pageshadow="2" inkscape:window-height="1001" inkscape:window-maximized="1" inkscape:window-width="1920" inkscape:window-x="-9" inkscape:window-y="-9" inkscape:zoom="0.35" pagecolor="#00ffff" showgrid="false" units="px">
	</sodipodi:namedview>
<g>
	<circle class="st0" cx="55.0931" cy="55.0931" r="55.0931"/>
	<path id="path12" inkscape:connector-curvature="0" class="st1" d="M0.7697,64.2222C2.0174,71.6717,4.72,78.5211,8.5248,84.523
		c14.2153-3.9576,26.7137-11.4508,31.1587-28.1505c4.8888-18.3802-0.6911-37.6407-14.0407-47.8475
		C7.4663,20.034-3.0169,41.677,0.7697,64.2222 M109.4142,45.9692c5.0416,29.9984-15.1901,58.4071-45.1958,63.4451
		c-5.0452,0.8512-10.0504,0.9821-14.8992,0.4729c-15.6521-1.6369-29.7583-9.9558-38.8338-22.4615l89.1912-25.5715
		c1.2804-0.371,0.9494-1.6005-0.1091-1.5277l-37.3934,2.6117c5.2671-5.0852,9.2756-11.3235,8.7918-19.948
		C69.9802,29.0186,55.7613,15.3853,29.3167,6.4152c5.0816-2.6954,10.6615-4.6414,16.6451-5.6454
		c5.0488-0.8439,10.054-0.9821,14.8992-0.4729C84.8648,2.8105,105.2202,21.0052,109.4142,45.9692"/>
</g>
<path id="path14" inkscape:connector-curvature="0" d="M416.4755,48.3753V29.1768h-19.2494v19.1984h-10.5648V2.6467h10.5648v18.2165
	h19.2494V2.6467h10.6448v45.7286H416.4755z"/>
<path id="path16" inkscape:connector-curvature="0" d="M188.7636,2.6467v28.6285c0,3.164,0.4655,5.9025,1.3856,8.1281
	c0.9128,2.2075,2.2366,4.0441,3.935,5.4551c1.7129,1.4256,3.7822,2.4766,6.1425,3.124c2.4003,0.6619,5.1096,1.0001,8.0518,1.0001
	c2.9385,0,5.6224-0.3382,7.9718-1.0001c2.313-0.6473,4.2841-1.6947,5.8661-3.1094c1.5784-1.4111,2.8185-3.2476,3.684-5.4588
	c0.8728-2.2184,1.3092-4.9569,1.3092-8.1391V2.6467h-9.8847v28.3231c0,2.8839-0.7164,5.2151-2.1275,6.9244
	c-1.4438,1.742-3.7386,2.6257-6.8189,2.6257c-3.0294,0-5.306-0.8801-6.7753-2.6185c-1.4402-1.7056-2.1712-4.0368-2.1712-6.9317
	V2.6467H188.7636z"/>
<path id="path18" inkscape:connector-curvature="0" d="M158.2876,48.3825V11.1858h-12.4232V2.6467h35.4875v4.095
	c0,2.4512-1.9893,4.4441-4.4405,4.4441h-8.0554v37.1967H158.2876z"/>
<path id="path20" inkscape:connector-curvature="0" d="M328.1132,2.643h10.5684v45.7286h-10.5684V2.643z"/>
<path id="path22" inkscape:connector-curvature="0" d="M292.9203,27.0493l0.3564,0.4546l13.4996,17.3946
	c1.7166,2.2148,4.3095,3.4876,7.1135,3.4876h8.4154l-19.3403-24.599l-0.2837-0.3637l0.2837-0.36l15.8999-20.4349h-10.9975
	l-14.5798,19.7112l-0.3673,0.4764l-0.0037-0.8255V2.6285h-10.5684v45.7322h10.5684V27.864L292.9203,27.0493z"/>
<path id="path24" inkscape:connector-curvature="0" d="M247.4391,23.5762h6.1607c2.2184,0,3.9095-0.611,5.0224-1.8075
	c1.102-1.1856,1.662-2.7276,1.662-4.5787c0-1.8984-0.5455-3.4586-1.6184-4.6441c-1.091-1.2074-2.793-1.8147-5.066-1.8147h-6.1607
	V23.5762z M268.5722,48.368c-3.1312,0-6.0807-1.662-7.699-4.3386l-8.2227-13.576h-5.2115V48.368h-10.5611V2.6467h18.8311
	c4.8369,0,8.6264,1.262,11.2594,3.7531c2.6257,2.4839,3.9568,5.8879,3.9568,10.1138c0,2.1457-0.571,4.3205-1.6984,6.4625
	c-1.1129,2.1057-3.084,3.8295-5.8661,5.1206l-0.611,0.2837l12.8305,19.9876H268.5722z"/>
<path id="path26" inkscape:connector-curvature="0" d="M347.3553,46.4332V37.665c3.364,1.5493,7.699,3.0949,12.1795,3.0949
	c5.1569,0,7.7718-1.7675,7.7718-5.1569c0-3.9786-3.5095-4.4187-10.5357-7.4408c-4.7823-2.1348-9.3392-5.4515-9.3392-13.1105
	c0-8.9137,6.8008-13.1141,16.2163-13.1141c5.0042,0,9.2664,1.1783,11.6558,2.062v8.5464c-2.3893-1.1056-6.6516-2.433-10.9102-2.433
	c-4.6332,0-6.8008,1.6947-6.8008,4.6405c0,3.0949,2.6185,4.055,7.3244,5.8224c6.0515,3.0185,13.0778,4.3459,13.0778,14.6598
	c0,8.9137-7.0989,13.776-16.5909,13.776C355.5743,49.0117,350.9448,47.9788,347.3553,46.4332"/>
<path id="path28" inkscape:connector-curvature="0" d="M363.9196,107.6086V61.8764h28.6358v4.1495
	c0,2.4221-1.9711,4.3896-4.3896,4.3896H374.488v9.8374h15.358v7.6336h-15.358v11.1867h18.0674v8.5355H363.9196z"/>
<path id="path30" inkscape:connector-curvature="0" d="M259.4428,107.6049V61.8764h5.1351c2.9931,0,5.4297,2.4366,5.4297,5.4297
	v32.0616h16.8673v8.2373H259.4428z"/>
<path id="path32" inkscape:connector-curvature="0" d="M194.0285,107.5976V61.8982h10.5684l-0.0038,45.6995H194.0285z"/>
<path id="path34" inkscape:connector-curvature="0" d="M224.85,82.8059h6.1607c2.2184,0,3.9059-0.6073,5.0224-1.8038
	c1.1019-1.1892,1.662-2.7276,1.662-4.5823c0-1.8947-0.5455-3.4585-1.622-4.6441c-1.0874-1.2038-2.793-1.8147-5.0624-1.8147H224.85
	V82.8059z M245.9832,107.5976c-3.1312,0-6.0843-1.662-7.7027-4.335l-8.2191-13.576H224.85v17.911h-10.5611V61.88h18.8275
	c4.8405,0,8.6264,1.262,11.263,3.7531c2.6257,2.4839,3.9568,5.8879,3.9568,10.1138c0,2.1457-0.571,4.3205-1.702,6.4625
	c-1.1092,2.1021-3.084,3.8259-5.8625,5.1206l-0.611,0.2837l12.8305,19.984L245.9832,107.5976z"/>
<path id="path36" inkscape:connector-curvature="0" d="M157.7083,90.9449l4.1495-11.5576c0.9201-2.6003,1.8438-5.346,2.4585-7.3681
	h0.1527c0.5382,2.0948,1.462,4.6951,2.3821,7.3681l3.9968,11.5576H157.7083z M170.7642,61.8727h-12.1359l-17.2455,45.7322h7.6117
	c1.9348,0,3.6404-1.2329,4.2441-3.0658l1.7711-5.3679h18.5475l2.713,8.4336h11.4485L170.7642,61.8727z"/>
<path id="path38" inkscape:connector-curvature="0" d="M401.0436,105.6702v-8.7646c3.3604,1.5456,7.6954,3.0912,12.1795,3.0912
	c5.1569,0,7.7718-1.7675,7.7718-5.1569c0-3.9786-3.5131-4.4187-10.5357-7.4372c-4.7823-2.1384-9.3428-5.4515-9.3428-13.1141
	c0-8.9137,6.8007-13.1141,16.2163-13.1141c5.0078,0,9.2665,1.1783,11.6595,2.062v8.5464c-2.393-1.1019-6.6516-2.4294-10.9103-2.4294
	c-4.6332,0-6.8007,1.6947-6.8007,4.6405c0,3.0912,2.6148,4.0513,7.3208,5.8188c6.0552,3.0185,13.0778,4.3459,13.0778,14.6598
	c0,8.9137-7.0989,13.776-16.5872,13.776C409.2626,108.2486,404.6294,107.2158,401.0436,105.6702"/>
<path id="path40" inkscape:connector-curvature="0" d="M313.9178,61.8836h6.5498c3.1094,0,6.0006,1.6038,7.6444,4.2441
	l12.7541,20.4895c1.4402,2.2766,3.1094,5.2842,4.0986,7.4117h0.2255c-0.1527-2.0548-0.2255-4.9169-0.2255-6.9717V61.8836h9.2592
	v45.7249h-11.5867l-15.5108-24.7372c-1.4438-2.273-2.9603-4.9896-4.0259-7.0444h-0.1491c0.0763,1.982,0.2255,4.3314,0.2255,6.5316
	v25.25h-9.2592V61.8836z"/>
<path id="path42" inkscape:connector-curvature="0" d="M293.6756,107.5976V61.8982h10.5648v45.6995H293.6756z"/>
</svg>
